<?xml version="1.0" encoding="utf-8"?>
<!-- Generator: Adobe Illustrator 23.0.2, SVG Export Plug-In . SVG Version: 6.00 Build 0)  -->
<svg version="1.1" id="Layer_1" xmlns="http://www.w3.org/2000/svg" xmlns:xlink="http://www.w3.org/1999/xlink" x="0px" y="0px"
	 viewBox="0 0 256 256" style="enable-background:new 0 0 256 256;" xml:space="preserve">
<style type="text/css">
	.st0{fill:none;stroke:#A3CD39;stroke-width:10.4;stroke-miterlimit:10;}
	.st1{fill:#A3CD39;}
	.st2{fill:none;stroke:#A3CD39;stroke-width:6.4;stroke-miterlimit:10;}
</style>
<title>Inventory - green</title>
<path class="st0" d="M154.9,76.2h22.5c1.3,0,2.3,1,2.3,2.3v118.7c0,1.3-1,2.3-2.3,2.3H78.6c-1.3,0-2.3-1-2.3-2.3V78.4
	c0-1.3,1-2.3,2.3-2.3h24.6"/>
<circle class="st1" cx="128" cy="62.6" r="4.3"/>
<path class="st0" d="M151.6,62.7h-9.4c0-7.8-6.3-14.2-14.2-14.2s-14.2,6.3-14.2,14.2c0,0,0,0,0,0h-9.4c-1.3,0-2.3,1-2.3,2.3v18
	c0,1.3,1,2.3,2.3,2.3h47.1c1.3,0,2.3-1,2.3-2.3V65C153.8,63.7,152.8,62.7,151.6,62.7z"/>
<polyline class="st2" points="114.3,108.3 98.8,124.1 92.2,117.4 "/>
<polyline class="st2" points="114.3,133.4 98.8,149.2 92.2,142.6 "/>
<polyline class="st2" points="114.3,158.6 98.8,174.4 92.2,167.7 "/>
<line class="st2" x1="123.7" y1="115.8" x2="167" y2="115.8"/>
<line class="st2" x1="123.7" y1="140.9" x2="167" y2="140.9"/>
<line class="st2" x1="123.7" y1="166.1" x2="167" y2="166.1"/>
</svg>
