<?xml version="1.0" encoding="UTF-8" standalone="no"?>
<svg
   xmlns:dc="http://purl.org/dc/elements/1.1/"
   xmlns:cc="http://creativecommons.org/ns#"
   xmlns:rdf="http://www.w3.org/1999/02/22-rdf-syntax-ns#"
   xmlns:svg="http://www.w3.org/2000/svg"
   xmlns="http://www.w3.org/2000/svg"
   viewBox="0 0 377.94666 377.94666"
   height="377.94666"
   width="377.94666"
   xml:space="preserve"
   id="svg2"
   version="1.1"><metadata
     id="metadata8"><rdf:RDF><cc:Work
         rdf:about=""><dc:format>image/svg+xml</dc:format><dc:type
           rdf:resource="http://purl.org/dc/dcmitype/StillImage" /></cc:Work></rdf:RDF></metadata><defs
     id="defs6"><clipPath
       id="clipPath18"
       clipPathUnits="userSpaceOnUse"><path
         id="path16"
         d="M 0,283.46 H 283.46 V 0 H 0 Z" /></clipPath></defs><g
     transform="matrix(1.3333333,0,0,-1.3333333,0,377.94667)"
     id="g10"><g
       id="g12"><g
         clip-path="url(#clipPath18)"
         id="g14"><g
           transform="translate(157.9873,82.9634)"
           id="g20"><path
             id="path22"
             style="fill:#d5d415;fill-opacity:1;fill-rule:nonzero;stroke:none"
             d="m 0,0 c -1.497,-0.375 -3.025,-0.707 -4.542,-0.984 -3.966,-0.739 -6.587,-4.551 -5.853,-8.52 0.36,-1.953 1.471,-3.578 2.976,-4.641 1.551,-1.091 3.526,-1.584 5.538,-1.21 1.807,0.334 3.627,0.73 5.412,1.175 3.918,0.975 6.303,4.942 5.325,8.854 C 7.881,-1.408 3.919,0.975 0,0" /></g><g
           transform="translate(212.0225,180.9023)"
           id="g24"><path
             id="path26"
             style="fill:#d5d415;fill-opacity:1;fill-rule:nonzero;stroke:none"
             d="m 0,0 c 0.512,-1.543 1.49,-2.803 2.725,-3.672 1.829,-1.29 4.222,-1.723 6.508,-0.968 3.831,1.273 5.91,5.404 4.64,9.234 -0.578,1.746 -1.219,3.498 -1.9,5.201 -1.499,3.747 -5.75,5.572 -9.498,4.073 C -1.271,12.37 -3.095,8.117 -1.596,4.371 -1.023,2.937 -0.484,1.465 0,0" /></g><g
           transform="translate(181.7324,93.395)"
           id="g28"><path
             id="path30"
             style="fill:#d5d415;fill-opacity:1;fill-rule:nonzero;stroke:none"
             d="m 0,0 c -1.29,-0.852 -2.62,-1.674 -3.961,-2.447 -3.497,-2.016 -4.692,-6.487 -2.677,-9.981 0.548,-0.951 1.278,-1.726 2.117,-2.322 2.252,-1.586 5.315,-1.822 7.864,-0.355 1.593,0.919 3.178,1.896 4.711,2.912 3.366,2.224 4.293,6.757 2.068,10.125 C 7.897,1.301 3.366,2.225 0,0" /></g><g
           transform="translate(230.4385,160.4922)"
           id="g32"><path
             id="path34"
             style="fill:#d5d415;fill-opacity:1;fill-rule:nonzero;stroke:none"
             d="m 0,0 c -0.158,4.034 -3.555,7.174 -7.59,7.016 -4.029,-0.159 -7.169,-3.557 -7.013,-7.587 0.062,-1.542 0.079,-3.107 0.042,-4.646 -0.057,-2.529 1.179,-4.785 3.102,-6.139 1.145,-0.808 2.536,-1.296 4.043,-1.33 4.033,-0.087 7.373,3.11 7.463,7.145 C 0.088,-3.7 0.072,-1.836 0,0" /></g><g
           transform="translate(210.8291,112.6177)"
           id="g36"><path
             id="path38"
             style="fill:#d5d415;fill-opacity:1;fill-rule:nonzero;stroke:none"
             d="m 0,0 c -3.232,2.426 -7.808,1.766 -10.23,-1.463 -0.928,-1.234 -1.905,-2.455 -2.905,-3.631 -2.613,-3.072 -2.243,-7.685 0.826,-10.301 0.176,-0.148 0.354,-0.283 0.538,-0.412 3.053,-2.154 7.294,-1.658 9.763,1.239 1.194,1.402 2.36,2.861 3.468,4.338 C 3.881,-7.002 3.227,-2.424 0,0" /></g><g
           transform="translate(221.5713,139.0303)"
           id="g40"><path
             id="path42"
             style="fill:#d5d415;fill-opacity:1;fill-rule:nonzero;stroke:none"
             d="m 0,0 c -3.851,1.208 -7.95,-0.936 -9.158,-4.786 -0.461,-1.472 -0.973,-2.951 -1.526,-4.398 -1.213,-3.186 -0.052,-6.691 2.614,-8.572 0.488,-0.342 1.027,-0.633 1.611,-0.854 3.771,-1.439 7.992,0.451 9.429,4.225 0.656,1.72 1.264,3.478 1.816,5.228 C 5.992,-5.307 3.85,-1.208 0,0" /></g><g
           transform="translate(126.1084,81.9106)"
           id="g44"><path
             id="path46"
             style="fill:#d5d415;fill-opacity:1;fill-rule:nonzero;stroke:none"
             d="m 0,0 c -6.532,1.174 -12.799,3.172 -18.742,5.957 -0.071,0.037 -0.133,0.08 -0.206,0.111 -1.4,0.661 -2.798,1.368 -4.154,2.104 -0.005,0.006 -0.013,0.01 -0.02,0.014 -2.485,1.367 -4.913,2.882 -7.271,4.541 -34.371,24.214 -42.634,71.876 -18.421,106.247 5.265,7.471 11.637,13.705 18.74,18.645 0.088,0.061 0.176,0.123 0.263,0.183 25.032,17.248 59.022,18.41 85.601,0.687 l -5.708,-8.249 c -1.588,-2.295 -0.613,-3.969 2.167,-3.719 l 24.798,2.221 c 2.781,0.25 4.444,2.656 3.697,5.341 l -6.66,23.993 c -0.744,2.69 -2.654,3.013 -4.243,0.717 l -5.722,-8.268 c -19.505,13.094 -42.9,18.088 -66.122,14.06 -2.339,-0.404 -4.645,-0.9 -6.919,-1.476 -0.017,-0.004 -0.033,-0.006 -0.047,-0.01 -0.088,-0.02 -0.177,-0.049 -0.263,-0.072 -20.024,-5.143 -37.494,-16.82 -49.961,-33.486 -0.105,-0.124 -0.213,-0.247 -0.313,-0.381 -0.414,-0.559 -0.826,-1.129 -1.228,-1.7 -0.659,-0.937 -1.309,-1.896 -1.929,-2.856 -0.078,-0.116 -0.138,-0.233 -0.206,-0.351 -10.287,-15.941 -15.249,-34.371 -14.399,-53.134 0.002,-0.061 -0.002,-0.123 0,-0.188 0.082,-1.832 0.227,-3.69 0.426,-5.519 0.01,-0.12 0.037,-0.231 0.058,-0.348 0.202,-1.84 0.46,-3.684 0.78,-5.527 3.26,-18.807 12.131,-35.732 25.427,-48.902 0.03,-0.031 0.063,-0.063 0.093,-0.096 0.011,-0.014 0.023,-0.019 0.035,-0.031 3.571,-3.522 7.457,-6.781 11.638,-9.727 10.95,-7.715 23.141,-12.812 36.232,-15.164 3.974,-0.713 7.768,1.932 8.479,5.903 C 6.614,-4.508 3.973,-0.709 0,0" /></g><g
           transform="translate(135.1436,216.0078)"
           id="g48"><path
             id="path50"
             style="fill:#d5d415;fill-opacity:1;fill-rule:nonzero;stroke:none"
             d="m 0,0 c -3.268,0 -5.914,-2.65 -5.914,-5.912 v -58.9 l 53.869,-27.846 c 0.865,-0.449 1.795,-0.662 2.707,-0.662 2.141,0 4.206,1.166 5.258,3.199 1.497,2.901 0.363,6.467 -2.537,7.963 L 5.906,-57.613 V -5.912 C 5.906,-2.65 3.265,0 0,0" /></g></g></g></g></svg>